<svg xmlns="http://www.w3.org/2000/svg" width="16" height="16" viewBox="0 0 16 16">
    <g fill="none" fill-rule="evenodd">
        <path stroke="#FFF" stroke-linecap="round" stroke-linejoin="round" stroke-width="1.5" d="M4.5 6.25H2.75A1.75 1.75 0 0 1 1 4.5V2.75C1 1.784 1.784 1 2.75 1H4.5c.966 0 1.75.784 1.75 1.75V4.5A1.75 1.75 0 0 1 4.5 6.25z"/>
        <path fill="#FFF" d="M4.5 3.625a.875.875 0 1 1-1.75 0 .875.875 0 0 1 1.75 0"/>
        <path stroke="#FFF" stroke-linecap="round" stroke-linejoin="round" stroke-width="1.5" d="M4.5 15H2.75A1.75 1.75 0 0 1 1 13.25V11.5c0-.966.784-1.75 1.75-1.75H4.5c.966 0 1.75.784 1.75 1.75v1.75A1.75 1.75 0 0 1 4.5 15z"/>
        <path fill="#FFF" d="M4.5 12.375a.874.874 0 1 1-1.748.002.874.874 0 0 1 1.748-.002"/>
        <path stroke="#FFF" stroke-linecap="round" stroke-linejoin="round" stroke-width="1.5" d="M13.25 6.25H11.5A1.75 1.75 0 0 1 9.75 4.5V2.75c0-.966.784-1.75 1.75-1.75h1.75c.966 0 1.75.784 1.75 1.75V4.5a1.75 1.75 0 0 1-1.75 1.75z"/>
        <path fill="#FFF" d="M13.25 3.625a.875.875 0 1 1-1.75 0 .875.875 0 0 1 1.75 0"/>
        <path stroke="#FFF" stroke-linecap="round" stroke-linejoin="round" stroke-width="1.5" d="M10.625 9.75V15M14.125 12.375V9.75"/>
    </g>
</svg>
